<svg width="57" height="49" viewBox="0 0 57 49" fill="none" xmlns="http://www.w3.org/2000/svg">
<path d="M32.625 0.25C19.1646 0.25 8.25 11.1646 8.25 24.625H0.125L10.6604 35.1604L10.85 35.5396L21.7917 24.625H13.6667C13.6667 14.1437 22.1437 5.66667 32.625 5.66667C43.1062 5.66667 51.5833 14.1437 51.5833 24.625C51.5833 35.1062 43.1062 43.5833 32.625 43.5833C27.3979 43.5833 22.6583 41.4438 19.2458 38.0042L15.4 41.85C19.8146 46.2646 25.8812 49 32.625 49C46.0854 49 57 38.0854 57 24.625C57 11.1646 46.0854 0.25 32.625 0.25ZM29.9167 13.7917V27.3333L41.5083 34.2125L43.4583 30.9354L33.9792 25.3021V13.7917H29.9167Z" fill="#884939"/>
</svg>
