<svg width="50" height="50" viewBox="0 0 50 50" fill="none" xmlns="http://www.w3.org/2000/svg">
<g clip-path="url(#clip0_130_8)">
<path d="M43.7501 18.75C41.4584 18.75 39.5834 16.875 39.5834 14.5833C39.5834 12.2916 43.7501 6.24996 43.7501 6.24996C43.7501 6.24996 47.9167 12.2916 47.9167 14.5833C47.9167 16.875 46.0417 18.75 43.7501 18.75ZM36.4584 14.5833C36.4584 13.0625 37.3126 11.0208 38.3751 9.04163C34.7501 5.99996 30.0834 4.16663 24.9792 4.16663C13.4792 4.16663 4.16675 13.5 4.16675 25C4.16675 36.5 13.4792 45.8333 24.9792 45.8333C36.5001 45.8333 45.8334 36.5 45.8334 25C45.8334 23.8541 45.7084 22.7291 45.5417 21.625C44.9584 21.7708 44.3751 21.875 43.7501 21.875C39.7292 21.875 36.4584 18.6041 36.4584 14.5833ZM32.5417 15.375L34.7501 17.5833L32.5417 19.7916L34.7501 22L32.5417 24.2083L28.1251 19.7916L32.5417 15.375ZM15.2501 17.5833L17.4584 15.375L21.8751 19.7916L17.4584 24.2083L15.2501 22L17.4584 19.7916L15.2501 17.5833ZM32.1667 35.4166C30.7292 32.9375 28.0626 31.25 25.0001 31.25C21.9376 31.25 19.2709 32.9375 17.8334 35.4166H14.3334C14.9584 33.8333 15.9167 32.4375 17.1251 31.2708L10.9167 27.7083C9.97925 28.25 8.81258 28.2916 7.81258 27.7083C6.31258 26.8541 5.81258 24.9375 6.66675 23.4375C7.52091 21.9375 9.43758 21.4375 10.9376 22.2916C11.9376 22.875 12.4792 23.9166 12.4792 24.9791L19.9376 29.2916C21.4584 28.5416 23.1667 28.125 25.0001 28.125C29.8542 28.125 34.0001 31.1458 35.6667 35.4166H32.1667Z" fill="#884939"/>
</g>
<defs>
<clipPath id="clip0_130_8">
<rect width="50" height="50" fill="white"/>
</clipPath>
</defs>
</svg>
